<?xml version="1.0" encoding="UTF-8"?>
<svg xmlns="http://www.w3.org/2000/svg" version="1.1" xmlns:xlink="http://www.w3.org/1999/xlink" viewBox="0 0 1534 1438">
  <defs>
    <style>
      .cls-1 {
        mask: url(#mask-5);
      }

      .cls-2 {
        fill: url(#linear-gradient-2);
      }

      .cls-3 {
        mask: url(#mask-1);
      }

      .cls-4 {
        mask: url(#mask-6);
      }

      .cls-5 {
        fill: #fff;
      }

      .cls-6 {
        mask: url(#mask);
      }

      .cls-7 {
        fill: #001854;
      }

      .cls-8 {
        mask: url(#mask-2);
      }

      .cls-9 {
        fill: #02216e;
      }

      .cls-10 {
        mask: url(#mask-4);
      }

      .cls-11 {
        opacity: .7;
      }

      .cls-12 {
        fill: url(#linear-gradient);
      }

      .cls-13 {
        mask: url(#mask-3);
      }
    </style>
    <mask id="mask" x="-130.1" y="327.3" width="1772" height="1962.7" maskUnits="userSpaceOnUse">
      <g id="mask0_106_86">
        <path class="cls-5" d="M1641.9,327.3H-130.1v1962.7h1772V327.3Z"/>
      </g>
    </mask>
    <mask id="mask-1" x="-130.1" y="327.3" width="1772" height="1962.7" maskUnits="userSpaceOnUse">
      <g id="mask1_106_86">
        <path class="cls-5" d="M1641.9,327.3H-130.1v1962.7h1772V327.3Z"/>
      </g>
    </mask>
    <mask id="mask-2" x="-130.1" y="327.3" width="1772" height="1962.7" maskUnits="userSpaceOnUse">
      <g id="mask2_106_86">
        <path class="cls-5" d="M1641.9,327.3H-130.1v1962.7h1772V327.3Z"/>
      </g>
    </mask>
    <mask id="mask-3" x="-130.1" y="327.3" width="1772" height="1962.7" maskUnits="userSpaceOnUse">
      <g id="mask3_106_86">
        <path class="cls-5" d="M1641.9,327.3H-130.1v1962.7h1772V327.3Z"/>
      </g>
    </mask>
    <mask id="mask-4" x="-130.1" y="327.3" width="1772" height="1962.7" maskUnits="userSpaceOnUse">
      <g id="mask4_106_86">
        <path class="cls-5" d="M1641.9,327.3H-130.1v1962.7h1772V327.3Z"/>
      </g>
    </mask>
    <mask id="mask-5" x="-2.1" y="281.4" width="1536.3" height="1819.7" maskUnits="userSpaceOnUse">
      <g id="mask5_106_86">
        <path class="cls-5" d="M1534.2,281.4H-2.1v1819.7h1536.3V281.4Z"/>
      </g>
    </mask>
    <mask id="mask-6" x="-1.5" y="764.2" width="1535.9" height="679.1" maskUnits="userSpaceOnUse">
      <g id="mask6_106_86">
        <path class="cls-5" d="M1534.4,764.2H-1.5v679.1h1535.9v-679.1Z"/>
      </g>
    </mask>
    <linearGradient id="linear-gradient" x1="766.5" y1="-187.2" x2="766.5" y2="546.7" gradientTransform="translate(0 1438) scale(1 -1)" gradientUnits="userSpaceOnUse">
      <stop offset="0" stop-color="#838383"/>
      <stop offset="1" stop-color="#838383" stop-opacity="0"/>
    </linearGradient>
    <linearGradient id="linear-gradient-2" x1="766.5" y1="318.3" x2="766.5" y2="0" gradientTransform="translate(0 1438) scale(1 -1)" gradientUnits="userSpaceOnUse">
      <stop offset="0" stop-color="#ffb205" stop-opacity="0"/>
      <stop offset=".4" stop-color="#ffb205" stop-opacity=".2"/>
      <stop offset=".7" stop-color="#ffb205" stop-opacity=".3"/>
      <stop offset="1" stop-color="#ffb205" stop-opacity=".6"/>
    </linearGradient>
  </defs>
  <!-- Generator: Adobe Illustrator 28.7.1, SVG Export Plug-In . SVG Version: 1.2.0 Build 142)  -->
  <g>
    <g id="Layer_1">
      <g class="cls-11">
        <g class="cls-6">
          <path class="cls-7" d="M786.8,425.9h-188.6v879.7h188.6V425.9Z"/>
        </g>
        <g class="cls-3">
          <path class="cls-7" d="M1534.2,1309.9v-484.5h-91.3v-268h-120.6v752.6h211.9Z"/>
        </g>
        <g class="cls-8">
          <path class="cls-7" d="M170.9,671.6H-2.1v632.3h173v-632.3Z"/>
        </g>
        <g class="cls-13">
          <path class="cls-7" d="M1100.8,1311.7v-414.6h-94.3v-225.5h-131.5v640.1h225.8Z"/>
        </g>
        <g class="cls-10">
          <path class="cls-7" d="M426.1,710.5h-177.3v596h177.3v-596Z"/>
        </g>
        <path class="cls-7" d="M-2.1,1246.8v191.2h1536.3v-191.2H-2.1Z"/>
        <g class="cls-1">
          <g>
            <path class="cls-9" d="M209.8,872.2H72.3v424.7h137.5v-424.7Z"/>
            <path class="cls-9" d="M367.4,765.7h-94v491.1h94v-491.1Z"/>
            <path class="cls-9" d="M598.6,809.3h-94v451.7h94v-451.7Z"/>
            <path class="cls-9" d="M685.7,911.1h-94v352.6h94v-352.6Z"/>
            <path class="cls-9" d="M438.5,644.2h-93.6v612.2h93.6v-612.2Z"/>
            <path class="cls-9" d="M821.4,644.2h-67.4v612.7h67.4v-612.7Z"/>
            <path class="cls-9" d="M888.8,514.5l-67.4,47.3v687.4h67.4v-734.8Z"/>
            <path class="cls-9" d="M996.6,872.6h-55v390.3h55v-390.3Z"/>
            <path class="cls-9" d="M1153.5,765.7h-93.5v517.7h93.5v-517.7Z"/>
            <path class="cls-9" d="M1384.6,809.3h-93.5v469.1h93.5v-469.1Z"/>
            <path class="cls-9" d="M1225,644.2h-94v637.4h94v-637.4Z"/>
            <path class="cls-9" d="M1534.2,1246.8H-2.1v191.2h1536.3v-191.2Z"/>
          </g>
        </g>
        <g class="cls-11">
          <g class="cls-4">
            <path class="cls-12" d="M1534.4,764.2H-1.5v673.8h1535.9v-673.8Z"/>
          </g>
        </g>
        <rect class="cls-2" x="-1.5" y="1119.7" width="1535.9" height="318.3"/>
      </g>
    </g>
  </g>
</svg>