<svg width="1534" height="1259" viewBox="0 0 1534 1259" fill="none" xmlns="http://www.w3.org/2000/svg">
<g opacity="0.7">
<path d="M548.355 893.154C543.705 900.981 532.374 900.981 527.723 893.154L513.213 868.735C508.46 860.736 514.224 850.605 523.529 850.605H552.549C561.854 850.605 567.619 860.736 562.866 868.735L548.355 893.154Z" fill="#001854"/>
<path d="M707.078 893.154C702.427 900.981 691.096 900.981 686.445 893.154L671.935 868.735C667.182 860.736 672.946 850.605 682.251 850.605H711.272C720.576 850.605 726.341 860.736 721.588 868.735L707.078 893.154Z" fill="#001854"/>
<path d="M687.264 903.865H550.331C543.703 903.865 538.331 898.493 538.331 891.865V-161.428C538.331 -168.056 543.703 -173.428 550.331 -173.428H687.264C693.892 -173.428 699.264 -168.056 699.264 -161.428V891.865C699.264 898.493 693.892 903.865 687.264 903.865Z" fill="#001854"/>
<path d="M606.152 861.306H521.089C514.462 861.306 509.089 855.933 509.089 849.306V-193.348C509.089 -199.976 514.462 -205.348 521.089 -205.348H606.152C612.779 -205.348 618.152 -199.976 618.152 -193.348V849.306C618.152 855.933 612.779 861.306 606.152 861.306Z" fill="#001854"/>
<path d="M713.884 861.306H628.821C622.194 861.306 616.821 855.933 616.821 849.306V-186.698C616.821 -193.326 622.194 -198.698 628.821 -198.698H713.884C720.511 -198.698 725.884 -193.326 725.884 -186.698V849.306C725.884 855.933 720.511 861.306 713.884 861.306Z" fill="#001854"/>
<path d="M1452.39 1003.54H1305.16C1298.53 1003.54 1293.16 998.168 1293.16 991.541V-65.8016C1293.16 -72.4291 1298.53 -77.8016 1305.16 -77.8016H1452.39C1459.02 -77.8016 1464.39 -72.4291 1464.39 -65.8016V991.541C1464.39 998.168 1459.02 1003.54 1452.39 1003.54Z" fill="#001854"/>
<path d="M1305.32 994.896C1300.66 1002.66 1289.4 1002.66 1284.74 994.896L1270.08 970.462C1265.28 962.464 1271.04 952.288 1280.37 952.288H1309.69C1319.02 952.288 1324.78 962.464 1319.98 970.462L1305.32 994.896Z" fill="#001854"/>
<path d="M1472.81 994.409C1468.15 1002.18 1456.89 1002.18 1452.23 994.409L1437.57 969.975C1432.77 961.976 1438.53 951.801 1447.86 951.801H1477.18C1486.51 951.801 1492.27 961.976 1487.47 969.975L1472.81 994.409Z" fill="#001854"/>
<path d="M1368.74 963.384H1277.71C1271.08 963.384 1265.71 958.011 1265.71 951.384V-156.989C1265.71 -163.616 1271.08 -168.989 1277.71 -168.989H1368.74C1375.36 -168.989 1380.74 -163.616 1380.74 -156.989V951.384C1380.74 958.011 1375.36 963.384 1368.74 963.384Z" fill="#001854"/>
<path d="M1479.84 963.384H1388.81C1382.19 963.384 1376.81 958.011 1376.81 951.384V-148.483C1376.81 -155.111 1382.19 -160.483 1388.81 -160.483H1479.84C1486.47 -160.483 1491.84 -155.111 1491.84 -148.483V951.384C1491.84 958.011 1486.47 963.384 1479.84 963.384Z" fill="#001854"/>
<path d="M936.963 802.966C932.312 810.791 920.982 810.791 916.331 802.966L901.084 777.31C896.33 769.311 902.095 759.18 911.4 759.18H941.894C951.199 759.18 956.963 769.311 952.209 777.31L936.963 802.966Z" fill="#001854"/>
<path d="M1098.9 802.966C1094.25 810.791 1082.92 810.791 1078.27 802.966L1063.02 777.31C1058.27 769.311 1064.03 759.18 1073.34 759.18H1103.83C1113.14 759.18 1118.9 769.311 1114.15 777.31L1098.9 802.966Z" fill="#001854"/>
<path d="M1079.21 813.537H938.936C932.309 813.537 926.936 808.164 926.936 801.537V-33.6909C926.936 -40.3183 932.309 -45.6909 938.936 -45.6909H1079.21C1085.83 -45.6909 1091.21 -40.3183 1091.21 -33.6909V801.537C1091.21 808.164 1085.83 813.537 1079.21 813.537Z" fill="#001854"/>
<path d="M996.389 759.241H909.065C902.438 759.241 897.065 753.869 897.065 747.241V-177.574C897.065 -184.202 902.438 -189.574 909.065 -189.574H996.389C1003.02 -189.574 1008.39 -184.201 1008.39 -177.574V747.241C1008.39 753.869 1003.02 759.241 996.389 759.241Z" fill="#001854"/>
<path d="M1106.36 759.241H1019.03C1012.4 759.241 1007.03 753.869 1007.03 747.241V-172.145C1007.03 -178.772 1012.4 -184.145 1019.03 -184.145H1106.36C1112.98 -184.145 1118.36 -178.772 1118.36 -172.145V747.241C1118.36 753.869 1112.98 759.241 1106.36 759.241Z" fill="#001854"/>
<path d="M277.544 984.453H47.7568C41.1294 984.453 35.7568 979.081 35.7568 972.454V473.574C35.7568 466.946 41.1294 461.574 47.7568 461.574H277.544C284.172 461.574 289.544 466.946 289.544 473.574V972.453C289.544 979.081 284.172 984.453 277.544 984.453Z" fill="#001854"/>
<path d="M51.2183 981.1C46.5574 988.868 35.2993 988.868 30.6384 981.1L-4.09633 923.209C-8.8953 915.211 -3.13396 905.035 6.19358 905.035H75.6628C84.9903 905.035 90.7516 915.21 85.9527 923.209L51.2183 981.1Z" fill="#001854"/>
<path d="M293.327 980.339C288.666 988.107 277.408 988.107 272.747 980.339L238.013 922.448C233.214 914.45 238.975 904.274 248.302 904.274H317.772C327.099 904.274 332.861 914.45 328.062 922.448L293.327 980.339Z" fill="#001854"/>
<path d="M151.989 918.231H6.35205C-0.275366 918.231 -5.64795 912.859 -5.64795 906.231V-219C-5.64795 -225.628 -0.27536 -231 6.35206 -231H151.989C158.616 -231 163.989 -225.628 163.989 -219V906.231C163.989 912.859 158.616 918.231 151.989 918.231Z" fill="#001854"/>
<path d="M317.619 918.231H171.982C165.355 918.231 159.982 912.859 159.982 906.231V-219C159.982 -225.628 165.355 -231 171.982 -231H317.619C324.246 -231 329.619 -225.628 329.619 -219V906.231C329.619 912.859 324.246 918.231 317.619 918.231Z" fill="#001854"/>
<mask id="mask0_106_135" style="mask-type:luminance" maskUnits="userSpaceOnUse" x="7" y="-173" width="1653" height="1432">
<path d="M1648 1259H19.5051C12.8777 1259 7.50513 1253.63 7.50513 1247V-160.188C7.50513 -166.815 12.8777 -172.188 19.5051 -172.188H1648C1654.62 -172.188 1660 -166.815 1660 -160.188V1247C1660 1253.63 1654.62 1259 1648 1259Z" fill="white"/>
</mask>
<g mask="url(#mask0_106_135)">
<path d="M334.747 705.077H190.45C183.823 705.077 178.45 699.705 178.45 693.077V470.595C178.45 463.968 183.823 458.595 190.45 458.595H334.747C341.375 458.595 346.747 463.968 346.747 470.595V693.077C346.747 699.705 341.375 705.077 334.747 705.077Z" fill="#18306E"/>
<path d="M349.751 701.179C345.091 708.947 333.832 708.947 329.172 701.179L295.371 644.845C290.572 636.846 296.333 626.671 305.661 626.671H373.262C382.589 626.671 388.351 636.846 383.552 644.845L349.751 701.179Z" fill="#18306E"/>
<path d="M371.854 640.144H148.047C141.419 640.144 136.047 634.771 136.047 628.144V-78.0269C136.047 -84.6543 141.419 -90.0269 148.047 -90.0269H371.854C378.482 -90.0269 383.854 -84.6542 383.854 -78.0269V628.144C383.854 634.771 378.482 640.144 371.854 640.144Z" fill="#18306E"/>
<path d="M190.73 699.854C186.07 707.622 174.811 707.622 170.151 699.854L136.35 643.52C131.551 635.521 137.312 625.346 146.64 625.346H214.241C223.568 625.346 229.33 635.521 224.531 643.52L190.73 699.854Z" fill="#18306E"/>
<path d="M1329.18 629.62C1324.52 637.388 1313.26 637.388 1308.6 629.62L1277.57 577.91C1272.77 569.912 1278.53 559.736 1287.86 559.736H1349.91C1359.24 559.736 1365 569.912 1360.2 577.91L1329.18 629.62Z" fill="#18306E"/>
<path d="M1141.37 629.62C1146.03 637.388 1157.29 637.388 1161.95 629.62L1192.98 577.91C1197.78 569.912 1192.01 559.736 1182.69 559.736H1120.64C1111.31 559.736 1105.55 569.912 1110.35 577.91L1141.37 629.62Z" fill="#18306E"/>
<path d="M1122.05 577.47H1265.02C1271.64 577.47 1277.02 572.097 1277.02 565.47V2.80896C1277.02 -3.81848 1271.64 -9.19104 1265.02 -9.19104H1122.05C1115.42 -9.19104 1110.05 -3.81848 1110.05 2.80896V565.47C1110.05 572.097 1115.42 577.47 1122.05 577.47Z" fill="#18306E"/>
<path d="M1348.5 577.47H1205.53C1198.9 577.47 1193.53 572.097 1193.53 565.47V2.80896C1193.53 -3.81848 1198.9 -9.19104 1205.53 -9.19104H1348.5C1355.13 -9.19104 1360.5 -3.81848 1360.5 2.80896V565.47C1360.5 572.097 1355.13 577.47 1348.5 577.47Z" fill="#18306E"/>
<path d="M1311.4 634.822H1167.1C1160.47 634.822 1155.1 629.449 1155.1 622.822V2.80927C1155.1 -3.81818 1160.47 -9.19073 1167.1 -9.19073H1311.4C1318.03 -9.19073 1323.4 -3.81818 1323.4 2.80927V622.822C1323.4 629.449 1318.03 634.822 1311.4 634.822Z" fill="#18306E"/>
<path d="M926.376 787.433C921.715 795.201 910.457 795.201 905.796 787.433L873.496 733.6C868.697 725.602 874.459 715.427 883.786 715.427H948.385C957.712 715.427 963.474 725.602 958.675 733.6L926.376 787.433Z" fill="#18306E"/>
<path d="M741.117 788.641C745.777 796.409 757.036 796.409 761.696 788.641L793.996 734.808C798.795 726.81 793.034 716.634 783.706 716.634H719.107C709.78 716.634 704.018 726.81 708.817 734.808L741.117 788.641Z" fill="#18306E"/>
<path d="M909.873 793.253H765.576C758.948 793.253 753.576 787.88 753.576 781.253V2.80914C753.576 -3.8183 758.948 -9.19086 765.576 -9.19086H909.873C916.5 -9.19086 921.873 -3.8183 921.873 2.80914V781.253C921.873 787.88 916.5 793.253 909.873 793.253Z" fill="#18306E"/>
<path d="M946.975 735.577H804.003C797.376 735.577 792.003 730.204 792.003 723.577V2.80878C792.003 -3.8186 797.376 -9.19122 804.003 -9.19122H946.975C953.603 -9.19122 958.975 -3.8186 958.975 2.80878V723.577C958.975 730.204 953.603 735.577 946.975 735.577Z" fill="#18306E"/>
<path d="M720.517 735.577H863.489C870.117 735.577 875.489 730.204 875.489 723.577V2.80878C875.489 -3.8186 870.117 -9.19122 863.489 -9.19122H720.517C713.89 -9.19122 708.517 -3.8186 708.517 2.80878V723.577C708.517 730.204 713.89 735.577 720.517 735.577Z" fill="#18306E"/>
</g>
</g>
</svg>
